<svg xmlns="http://www.w3.org/2000/svg" xmlns:xlink="http://www.w3.org/1999/xlink" width="1960" height="1065" viewBox="0 0 1960 1065"><defs><style>.a,.aa,.b,.c,.h,.u,.v,.y{fill:#fff;}.b{font-size:16px;opacity:0.93;}.b,.h,.u,.w,.z{font-family:SegoeUI-Light, Segoe UI;font-weight:300;}.c{font-size:85px;}.aa,.c,.v,.y{font-family:SegoeUI, Segoe UI;}.d,.g{fill:#e94560;}.d{stroke:#707070;}.e{opacity:0.36;}.f{opacity:0.5;}.h{font-size:22px;}.i{fill:red;}.j{fill:#00d95f;}.k{fill:#40ab5d;}.l{fill:url(#g);}.m{fill:url(#h);}.n{fill:url(#i);}.o{fill:url(#j);}.p{fill:url(#k);}.q{fill:url(#l);}.r{fill:url(#m);}.s{fill:url(#n);}.t{fill:url(#o);}.u,.w,.x{font-size:15px;}.aa,.v{font-size:20px;}.v{opacity:0.48;}.y{font-size:25px;}.ab,.ad{fill:none;}.ab{stroke:#e94560;stroke-linecap:round;stroke-width:3px;}.ac{stroke:none;}.ae{filter:url(#p);}.af{filter:url(#e);}.ag{filter:url(#c);}.ah{filter:url(#a);}</style><filter id="a" x="0" y="518" width="851" height="293" filterUnits="userSpaceOnUse"><feOffset input="SourceAlpha"/><feGaussianBlur stdDeviation="30" result="b"/><feFlood flood-color="#fff" flood-opacity="0.749"/><feComposite operator="in" in2="b"/><feComposite in="SourceGraphic"/></filter><filter id="c" x="1625" y="409" width="335" height="335" filterUnits="userSpaceOnUse"><feOffset input="SourceAlpha"/><feGaussianBlur stdDeviation="30" result="d"/><feFlood flood-color="#e94560"/><feComposite operator="in" in2="d"/><feComposite in="SourceGraphic"/></filter><filter id="e" x="51" y="927" width="298" height="138" filterUnits="userSpaceOnUse"><feOffset input="SourceAlpha"/><feGaussianBlur stdDeviation="15" result="f"/><feFlood flood-color="#e94560"/><feComposite operator="in" in2="f"/><feComposite in="SourceGraphic"/></filter><linearGradient id="g" x1="0.505" y1="-0.965" x2="0.495" y2="0.059" gradientUnits="objectBoundingBox"><stop offset="0" stop-color="#358c7b"/><stop offset="0.526" stop-color="#33a65e"/></linearGradient><linearGradient id="h" x1="-0.015" y1="-3.678" x2="1.015" y2="-2.781" gradientUnits="objectBoundingBox"><stop offset="0" stop-color="#222b90"/><stop offset="1" stop-color="#367b99"/></linearGradient><linearGradient id="i" y1="-6.004" x2="1" y2="-6.004" gradientUnits="objectBoundingBox"><stop offset="0" stop-color="#f90"/><stop offset="1" stop-color="#ff8000"/></linearGradient><linearGradient id="j" y1="-6.004" x2="1" y2="-6.004" gradientUnits="objectBoundingBox"><stop offset="0" stop-color="#ff8000"/><stop offset="1" stop-color="#cc1953"/></linearGradient><linearGradient id="k" y1="-6.004" x2="1" y2="-6.004" gradientUnits="objectBoundingBox"><stop offset="0" stop-color="#cc1953"/><stop offset="1" stop-color="#241284"/></linearGradient><linearGradient id="l" x1="-0.001" y1="-6.004" x2="0.999" y2="-6.004" gradientUnits="objectBoundingBox"><stop offset="0" stop-color="#222b90"/><stop offset="1" stop-color="#3559a6"/></linearGradient><linearGradient id="m" x1="-0.039" y1="-3.499" x2="1.039" y2="-2.96" xlink:href="#k"/><linearGradient id="n" x1="-0.036" y1="-2.897" x2="1.036" y2="-3.563" gradientUnits="objectBoundingBox"><stop offset="0.003" stop-color="#fc0"/><stop offset="1" stop-color="#ce1938"/></linearGradient><linearGradient id="o" x1="0.084" y1="0.199" x2="0.916" y2="-1.112" gradientUnits="objectBoundingBox"><stop offset="0.003" stop-color="#ffd100"/><stop offset="1" stop-color="#fd5a22"/></linearGradient><filter id="p" x="1448" y="0" width="372" height="227" filterUnits="userSpaceOnUse"><feOffset input="SourceAlpha"/><feGaussianBlur stdDeviation="30" result="q"/><feFlood flood-color="#e94560" flood-opacity="0.8"/><feComposite operator="in" in2="q"/><feComposite in="SourceGraphic"/></filter></defs><g transform="translate(-50 36)"><rect class="a" width="398" height="47" rx="10" transform="translate(546 54)"/><text class="b" transform="translate(621 83)"><tspan x="0" y="0">Find the best song</tspan></text><path class="a" d="M7.437,14.026A7.013,7.013,0,1,1,14.45,7.013,7.021,7.021,0,0,1,7.437,14.026Zm0-12.7A5.683,5.683,0,1,0,13.12,7.013,5.69,5.69,0,0,0,7.437,1.329Zm9.81,15.506a.665.665,0,0,0,0-.94l-2.975-2.975a.665.665,0,0,0-.94.94l2.975,2.975a.665.665,0,0,0,.94,0Z" transform="translate(581.576 68.616)"/><g class="ah" transform="matrix(1, 0, 0, 1, 50, -36)"><text class="c" transform="translate(90 700)"><tspan x="0" y="0">Twenty One Pilots</tspan></text></g><g class="ag" transform="matrix(1, 0, 0, 1, 50, -36)"><g class="d" transform="translate(1715 499)"><rect class="ac" width="155" height="155"/><rect class="ad" x="0.5" y="0.5" width="154" height="154"/></g></g><g class="e" transform="translate(140 318.627)"><g transform="translate(0 113.472)"><rect class="a" width="3.981" height="15.262" transform="matrix(-0.707, -0.707, 0.707, -0.707, 2.815, 13.608)"/><rect class="a" width="3.981" height="15.262" transform="translate(13.607 10.792) rotate(135)"/></g><g transform="translate(0 85.104)"><rect class="a" width="3.981" height="15.262" transform="matrix(-0.707, -0.707, 0.707, -0.707, 2.815, 13.608)"/><rect class="a" width="3.981" height="15.262" transform="translate(13.607 10.792) rotate(135)"/></g><g transform="translate(0 56.736)"><rect class="a" width="3.981" height="15.262" transform="translate(2.815 13.607) rotate(-135)"/><rect class="a" width="3.981" height="15.262" transform="matrix(-0.707, 0.707, -0.707, -0.707, 13.608, 10.792)"/></g><g transform="translate(0 28.368)"><rect class="a" width="3.981" height="15.262" transform="translate(2.815 13.607) rotate(-135)"/><rect class="a" width="3.981" height="15.262" transform="matrix(-0.707, 0.707, -0.707, -0.707, 13.608, 10.792)"/></g><g transform="translate(0 0)"><rect class="a" width="3.981" height="15.262" transform="matrix(-0.707, -0.707, 0.707, -0.707, 2.815, 13.608)"/><rect class="a" width="3.981" height="15.262" transform="translate(13.607 10.792) rotate(135)"/></g><g transform="translate(28.534 113.472)"><rect class="a" width="3.981" height="15.262" transform="matrix(-0.707, -0.707, 0.707, -0.707, 2.815, 13.608)"/><rect class="a" width="3.981" height="15.262" transform="matrix(-0.707, 0.707, -0.707, -0.707, 13.607, 10.792)"/></g><g transform="translate(28.534 85.104)"><rect class="a" width="3.981" height="15.262" transform="matrix(-0.707, -0.707, 0.707, -0.707, 2.815, 13.608)"/><rect class="a" width="3.981" height="15.262" transform="matrix(-0.707, 0.707, -0.707, -0.707, 13.607, 10.792)"/></g><g transform="translate(28.534 56.736)"><rect class="a" width="3.981" height="15.262" transform="translate(2.815 13.607) rotate(-135)"/><rect class="a" width="3.981" height="15.262" transform="translate(13.607 10.792) rotate(135)"/></g><g transform="translate(28.534 28.368)"><rect class="a" width="3.982" height="15.262" transform="translate(2.815 13.607) rotate(-135)"/><rect class="a" width="3.982" height="15.262" transform="translate(13.607 10.792) rotate(135)"/></g><g transform="translate(28.534 0)"><rect class="a" width="3.981" height="15.262" transform="matrix(-0.707, -0.707, 0.707, -0.707, 2.815, 13.608)"/><rect class="a" width="3.981" height="15.262" transform="matrix(-0.707, 0.707, -0.707, -0.707, 13.607, 10.792)"/></g><g transform="translate(55.077 113.472)"><rect class="a" width="3.981" height="15.262" transform="matrix(-0.707, -0.707, 0.707, -0.707, 2.815, 13.608)"/><rect class="a" width="3.981" height="15.262" transform="translate(13.607 10.792) rotate(135)"/></g><g transform="translate(55.077 85.104)"><rect class="a" width="3.981" height="15.262" transform="matrix(-0.707, -0.707, 0.707, -0.707, 2.815, 13.608)"/><rect class="a" width="3.981" height="15.262" transform="translate(13.607 10.792) rotate(135)"/></g><g transform="translate(55.077 56.736)"><rect class="a" width="3.981" height="15.262" transform="translate(2.815 13.607) rotate(-135)"/><rect class="a" width="3.981" height="15.262" transform="matrix(-0.707, 0.707, -0.707, -0.707, 13.608, 10.792)"/></g><g transform="translate(55.077 28.368)"><rect class="a" width="3.981" height="15.262" transform="translate(2.815 13.607) rotate(-135)"/><rect class="a" width="3.981" height="15.262" transform="matrix(-0.707, 0.707, -0.707, -0.707, 13.608, 10.792)"/></g><g transform="translate(55.077 0)"><rect class="a" width="3.981" height="15.262" transform="matrix(-0.707, -0.707, 0.707, -0.707, 2.815, 13.608)"/><rect class="a" width="3.981" height="15.262" transform="translate(13.607 10.792) rotate(135)"/></g></g><g class="f" transform="translate(939.894 873.603)"><path class="a" d="M146.105,280.56,126.181,297.2l2.08,2.491,17.845-14.9,17.844,14.9,2.08-2.491Z" transform="translate(-126.181 -182.348)"/><path class="a" d="M146.105,259.454l-19.924,16.636,2.08,2.491,17.845-14.9,17.844,14.9,2.08-2.491Z" transform="translate(-126.181 -183.87)"/><path class="a" d="M146.105,238.349l-19.924,16.636,2.08,2.491,17.845-14.9,17.844,14.9,2.08-2.491Z" transform="translate(-126.181 -185.392)"/><path class="g" d="M146.331,188.955A19.945,19.945,0,1,0,166.276,208.9,19.968,19.968,0,0,0,146.331,188.955Zm0,36.644a16.7,16.7,0,1,1,16.7-16.7A16.718,16.718,0,0,1,146.331,225.6Z" transform="translate(-126.166 -188.955)"/></g><g class="f" transform="translate(1577.76 290.543)"><g transform="translate(0 0)"><path class="a" d="M455.208,334.72H420.92V300.43h34.288ZM424.133,331.5h27.862V303.646H424.133Z" transform="translate(-420.92 -300.43)"/></g><g transform="translate(0.536 51.969)"><path class="g" d="M455.462,359.351H421.174v-34.29h34.288Zm-31.075-3.215h27.861V328.276H424.387Z" transform="translate(-421.174 -325.061)"/></g><g transform="translate(0.536 103.405)"><path class="a" d="M455.462,383.727H421.174V349.439h34.288Zm-31.075-3.216h27.861V352.652H424.387Z" transform="translate(-421.174 -349.439)"/></g><g transform="translate(0.536 154.839)"><path class="g" d="M455.462,408.1H421.174V373.816h34.288Zm-31.075-3.213h27.861V377.029H424.387Z" transform="translate(-421.174 -373.816)"/></g></g><g transform="translate(0 52)"><g class="af" transform="matrix(1, 0, 0, 1, 50, -88)"><rect class="g" width="208" height="48" transform="translate(96 972)"/></g><text class="h" transform="translate(202 916)"><tspan x="0" y="0">See more</tspan></text></g><g class="e" transform="translate(95.244 83.482)"><path class="a" d="M704.215,421.956l17.454,20.9,2.613-2.182L708.65,421.956l15.632-18.721-2.613-2.182Z" transform="translate(13.02 0)"/><path class="a" d="M686.985,421.956l17.454,20.9,2.613-2.182-15.632-18.721,15.632-18.721-2.613-2.182Z" transform="translate(6.51 0)"/><path class="a" d="M669.756,421.956l17.454,20.9,2.614-2.182-15.632-18.721,15.632-18.721-2.614-2.182Z" transform="translate(0 0)"/></g><g transform="translate(279 116)"><g transform="translate(140 828.859)"><path class="i" d="M43.186,4.831A5.524,5.524,0,0,0,39.3.944C35.849,0,22.047,0,22.047,0S8.245,0,4.794.908A5.637,5.637,0,0,0,.908,4.831C0,8.281,0,15.437,0,15.437s0,7.192.908,10.606a5.525,5.525,0,0,0,3.887,3.887c3.487.944,17.253.944,17.253.944s13.8,0,17.253-.908a5.524,5.524,0,0,0,3.887-3.886c.908-3.451.908-10.606.908-10.606s.036-7.192-.908-10.642Zm0,0" transform="translate(0 0)"/><path class="a" d="M204.969,115.705l11.477-6.611-11.477-6.611Zm0,0" transform="translate(-187.317 -93.658)"/></g><path class="j" d="M16.322,0A16.322,16.322,0,1,0,32.644,16.322,16.322,16.322,0,0,0,16.322,0Zm7.1,23.687a1.116,1.116,0,0,1-1.527.4,16.43,16.43,0,0,0-8.648-1.919,21.453,21.453,0,0,0-4.486.592,1.116,1.116,0,0,1-.592-2.152,23.24,23.24,0,0,1,4.947-.669,21.79,21.79,0,0,1,4.766.345,16.086,16.086,0,0,1,5.139,1.876A1.116,1.116,0,0,1,23.425,23.687Zm2.075-4.31a1.322,1.322,0,0,1-1.809.474,19.462,19.462,0,0,0-10.244-2.273,25.417,25.417,0,0,0-5.314.7,1.322,1.322,0,0,1-.7-2.55,27.522,27.522,0,0,1,5.86-.793,25.815,25.815,0,0,1,5.646.409,19.057,19.057,0,0,1,6.087,2.222A1.322,1.322,0,0,1,25.5,19.378Zm1.276-3.919a1.614,1.614,0,0,1-.817-.222C17.7,10.41,6.985,13.28,6.878,13.31a1.622,1.622,0,0,1-.861-3.127A33.755,33.755,0,0,1,13.2,9.211a31.671,31.671,0,0,1,6.925.5A23.373,23.373,0,0,1,27.6,12.437a1.622,1.622,0,0,1-.82,3.022Z" transform="translate(213.019 828)"/><g transform="translate(274.87 832.295)"><path class="a" d="M127.8,13.818c0,4.367,2.692,6.979,6.68,6.979,1.994,0,3.669-.558,4.606-2.014V20.8h3.649V0h-3.789V8.833c-.857-1.456-2.453-2.114-4.447-2.114C130.612,6.72,127.8,9.392,127.8,13.818Zm11.266,0a3.759,3.759,0,0,1-3.729,4.048,3.715,3.715,0,0,1-3.729-4.048c0-2.532,1.635-4.128,3.729-4.128A3.818,3.818,0,0,1,139.066,13.818Z" transform="translate(-102.317)"/><path class="a" d="M218.567,42.414a3.048,3.048,0,0,1-3.27,2.413,3.413,3.413,0,0,1-3.709-3.37h9.551a7.8,7.8,0,0,0,.179-1.715c0-3.868-2.632-6.042-6.52-6.042a6.712,6.712,0,0,0-7,6.959c0,4.466,3.15,7.138,7.5,7.138,3.29,0,5.523-1.376,6.5-4.108Zm-6.979-3.489a3.157,3.157,0,0,1,3.21-2.473c1.695,0,2.851.917,2.851,2.353l-.02.12Z" transform="translate(-166.365 -26.98)"/><path class="a" d="M289.067,42.414a3.048,3.048,0,0,1-3.27,2.413,3.413,3.413,0,0,1-3.709-3.37h9.551a7.8,7.8,0,0,0,.179-1.715c0-3.868-2.632-6.042-6.52-6.042a6.712,6.712,0,0,0-7,6.959c0,4.466,3.15,7.138,7.5,7.138,3.29,0,5.523-1.376,6.5-4.108Zm-6.979-3.489a3.157,3.157,0,0,1,3.21-2.473c1.695,0,2.851.917,2.851,2.353l-.02.12Z" transform="translate(-222.808 -26.98)"/><path class="a" d="M362.1,47.8v-3.43h-7.956l7.737-7.537V33.7H349.639v3.27h7.477L349.4,44.527V47.8Z" transform="translate(-279.731 -26.98)"/><path class="a" d="M425.367,42.414a3.048,3.048,0,0,1-3.27,2.413,3.413,3.413,0,0,1-3.709-3.37h9.551a7.8,7.8,0,0,0,.179-1.715c0-3.868-2.632-6.042-6.52-6.042a6.712,6.712,0,0,0-7,6.959c0,4.466,3.15,7.138,7.5,7.138,3.29,0,5.523-1.376,6.5-4.108Zm-6.979-3.489a3.157,3.157,0,0,1,3.21-2.473c1.695,0,2.851.917,2.851,2.353l-.02.12Z" transform="translate(-331.93 -26.98)"/><path class="a" d="M497.057,38.645v.4h3.689V37.967A3.872,3.872,0,0,0,496.7,33.8a3.5,3.5,0,0,0-3.39,2.114V33.8H489.5V47.877h3.808V38.8c0-1.436.778-2.233,1.954-2.233A1.957,1.957,0,0,1,497.057,38.645Z" transform="translate(-391.895 -27.06)"/><rect class="k" width="4.666" height="2.732" transform="translate(16.929 6.72)"/><rect class="l" width="4.666" height="2.732" transform="translate(16.929 10.508)"/><rect class="m" width="4.666" height="2.732" transform="translate(16.929 14.297)"/><rect class="n" width="4.666" height="2.732" transform="translate(0 18.085)"/><rect class="o" width="4.666" height="2.732" transform="translate(5.643 18.085)"/><rect class="p" width="4.666" height="2.732" transform="translate(11.286 18.085)"/><rect class="q" width="4.666" height="2.732" transform="translate(16.929 18.085)"/><rect class="r" width="4.666" height="2.732" transform="translate(11.286 14.297)"/><rect class="s" width="4.666" height="2.732" transform="translate(5.643 14.297)"/><rect class="t" width="4.666" height="2.732" transform="translate(5.643 10.508)"/></g></g><text class="u" transform="translate(140 704)"><tspan x="0" y="16">Twenty One Pilots (stylized in all lowercase or as twenty øne piløts) is an American musical duo from </tspan><tspan x="0" y="36">Columbus, Ohio. The band was formed in 2009 by lead vocalist Tyler Joseph along with Nick Thomas and </tspan><tspan x="0" y="56">Chris Salih, both of whom left in 2011.</tspan></text><text class="v" transform="translate(140 799)"><tspan x="0" y="22">Genres: </tspan><tspan class="w"><tspan x="0" y="43">Alternative Rap, Electropop, Indie Pop, Pop Rock, Rap Rock, Alternative Rock</tspan></tspan></text><text class="v" transform="translate(140 858)"><tspan x="0" y="22">Members:</tspan><tspan class="x"><tspan x="0" y="43">Tyler Joseph, Josh Dun, Nick Thomas, Chris Salih</tspan></tspan></text><g transform="translate(140 54)"><text class="y" transform="translate(43.307 30)"><tspan x="0" y="0">Music</tspan><tspan class="z" y="0">Fan</tspan></text><text class="aa" transform="translate(1050 30)"><tspan x="0" y="0">Home</tspan></text><text class="aa" transform="translate(1188 30)"><tspan x="0" y="0">About</tspan></text><text class="aa" transform="translate(1326 30)"><tspan x="0" y="0">Blog</tspan></text><g class="ae" transform="matrix(1, 0, 0, 1, -90, -90)"><rect class="a" width="192" height="47" transform="translate(1538 90)"/></g><text class="aa" transform="translate(1504 29)"><tspan x="0" y="0">Subcribe</tspan></text><circle class="a" cx="7" cy="7" r="7" transform="translate(1023 16)"/><g transform="translate(0 1.689)"><g transform="translate(0 0.003)"><path class="a" d="M37.431,19.411H29.113a1.386,1.386,0,0,0-1.345,1.049L25.457,29.7,22.171,1.229a1.386,1.386,0,0,0-2.735-.118L15.043,23.085,12.428,13.5A1.386,1.386,0,0,0,9.8,13.35L7.379,19.411H1.386a1.386,1.386,0,1,0,0,2.773H8.318a1.386,1.386,0,0,0,1.288-.872l1.235-3.09L13.912,29.48A1.386,1.386,0,0,0,15.25,30.5H15.3a1.386,1.386,0,0,0,1.311-1.109l3.818-19.1,3.151,27.3a1.386,1.386,0,0,0,1.287,1.226l.09,0A1.386,1.386,0,0,0,26.3,37.769l3.9-15.585h7.235a1.386,1.386,0,1,0,0-2.773Z" transform="translate(0 -0.003)"/></g><line class="ab" x2="5" y2="5" transform="translate(151.308 9.267) rotate(-90)"/><line class="ab" y1="5" x2="5" transform="translate(156.307 9.355) rotate(-90)"/></g></g></g></svg>